<?xml version="1.0" encoding="UTF-8"?>
<!DOCTYPE svg PUBLIC "-//W3C//DTD SVG 1.1//EN" "http://www.w3.org/Graphics/SVG/1.1/DTD/svg11.dtd">
<svg xmlns="http://www.w3.org/2000/svg" version="1.1" width="17px" height="19px" style="shape-rendering:geometricPrecision; text-rendering:geometricPrecision; image-rendering:optimizeQuality; fill-rule:evenodd; clip-rule:evenodd" xmlns:xlink="http://www.w3.org/1999/xlink">
<g><path style="opacity:0.631" fill="#fea496" d="M -0.5,0.5 C 4.03225,0.181778 8.36559,0.515112 12.5,1.5C 8.5,1.5 4.5,1.5 0.5,1.5C 0.5,6.83333 0.5,12.1667 0.5,17.5C 0.166667,17.5 -0.166667,17.5 -0.5,17.5C -0.5,11.8333 -0.5,6.16667 -0.5,0.5 Z"/></g>
<g><path style="opacity:0.999" fill="#ff7f6b" d="M 12.5,1.5 C 12.8333,2.5 13.5,3.16667 14.5,3.5C 15.1667,4.16667 15.8333,4.83333 16.5,5.5C 16.5,6.5 16.5,7.5 16.5,8.5C 14.6921,12.7389 11.3587,14.4055 6.5,13.5C 6.5,14.8333 6.5,16.1667 6.5,17.5C 4.5,17.5 2.5,17.5 0.5,17.5C 0.5,12.1667 0.5,6.83333 0.5,1.5C 4.5,1.5 8.5,1.5 12.5,1.5 Z M 6.5,5.5 C 8.02694,5.42702 9.02694,6.09368 9.5,7.5C 7.40171,8.9143 6.40171,8.24764 6.5,5.5 Z"/></g>
<g><path style="opacity:0.008" fill="#ffdbd5" d="M 12.5,1.5 C 13.8333,1.5 14.5,2.16667 14.5,3.5C 13.5,3.16667 12.8333,2.5 12.5,1.5 Z"/></g>
<g><path style="opacity:0.467" fill="#ffcac1" d="M 6.5,5.5 C 6.40171,8.24764 7.40171,8.9143 9.5,7.5C 9.02694,6.09368 8.02694,5.42702 6.5,5.5 Z"/></g>
</svg>
